# xmcd
#
# Track frame offsets: 
#        150
#        15876
#        42821
#        63820
#        77329
#        93228
#        113250
#        137624
#        153347
#
# Disc length: 2392 seconds
#
# Revision: 0
# Processed by: cddbd v1.5.2PL0 Copyright (c) Steve Scherf et al.
# Submitted via: ExactAudioCopy v0.99pb3
#
DISCID=4f095609
DTITLE=John Lee Hooker - Free Beer and Chicken
DYEAR=2002
DGENRE=Blues
TTITLE0=Make It Funny
TTITLE1=Five Long Years - JOhn Lee HBooker, Boyd, Eddy
TTITLE2=713 Blies
TTITLE3=714 Blues
TTITLE4=One Bourbon, One Scotch, One Beer
TTITLE5=Homework
TTITLE6=Bluebird
TTITLE7=Sitting On Top Of The World - John Lee Hooker, Chatmon, Lonnie
TTITLE8=(You Never Amount To Anything If You Don't Go To) Collage
EXTD=
EXTT0=
EXTT1=
EXTT2=
EXTT3=
EXTT4=
EXTT5=
EXTT6=
EXTT7=
EXTT8=
PLAYORDER=
